<mxfile host="app.diagrams.net" modified="2024-05-19T15:28:28.728Z" agent="Mozilla/5.0 (Windows NT 10.0; Win64; x64) AppleWebKit/537.36 (KHTML, like Gecko) Chrome/125.0.0.0 Safari/537.36 Edg/125.0.0.0" etag="xtazmqsV-a1N74hqijz_" version="24.4.4" type="github">
  <diagram name="第 1 页" id="-eE-nTHfUd1Xu8XsaNr4">
    <mxGraphModel dx="1042" dy="617" grid="1" gridSize="10" guides="1" tooltips="1" connect="1" arrows="1" fold="1" page="1" pageScale="1" pageWidth="1169" pageHeight="827" math="0" shadow="0">
      <root>
        <mxCell id="0" />
        <mxCell id="1" parent="0" />
      </root>
    </mxGraphModel>
  </diagram>
</mxfile>
